# xmcd CD database file
#
# Track frame offsets:
#	150
#	18580
#	51030
#	79687
#
# Disc length: 1263 seconds
#
# Revision: 0
# Processed by: cddbd v1.4PL0 Copyright (c) Steve Scherf et al.
# Submitted via: CDex 1.50beta10
#
DISCID=2604ed04
DTITLE=Oleta Adams - Never Knew Love (The Remixes)
DYEAR=1995
DGENRE=Blues
TTITLE0=Never Knew Love (Reversend Jefferson Edit)
TTITLE1=Never Knew Love (Reversend Jefferson Mix)
TTITLE2=Never Knew Love (Nu Soul Mix)
TTITLE3=Never Knew Love
EXTD=YEAR: 1995
EXTT0=
EXTT1=
EXTT2=
EXTT3=
PLAYORDER=
